<?xml version="1.0" encoding="utf-8"?>
<!-- Generator: Adobe Illustrator 22.1.0, SVG Export Plug-In . SVG Version: 6.00 Build 0)  -->
<svg version="1.1" id="Regular" xmlns="http://www.w3.org/2000/svg" xmlns:xlink="http://www.w3.org/1999/xlink" x="0px" y="0px"
	 viewBox="0 0 24 24" style="enable-background:new 0 0 24 24;" xml:space="preserve">
<title>weather-night-clear</title>
<g>
	<path d="M11.99,22.508c-1.238,0-2.462-0.22-3.639-0.654c-2.63-0.97-4.725-2.907-5.899-5.453s-1.285-5.397-0.315-8.027
		c0.97-2.63,2.907-4.725,5.453-5.899c0.099-0.046,0.205-0.069,0.314-0.069c0.181,0,0.356,0.066,0.493,0.185
		c0.223,0.194,0.311,0.502,0.224,0.784C8.363,4.226,8.231,5.11,8.23,6.001c-0.001,2.404,0.935,4.665,2.635,6.366
		c1.7,1.701,3.96,2.637,6.365,2.638c1.289,0,2.589-0.287,3.76-0.829c0.098-0.046,0.205-0.07,0.315-0.07
		c0.181,0,0.356,0.066,0.493,0.185c0.222,0.194,0.311,0.502,0.224,0.784c-0.873,2.857-2.93,5.213-5.644,6.464
		C14.983,22.182,13.507,22.508,11.99,22.508z M6.819,4.641c-3.496,2.457-4.823,7.184-3.004,11.131
		c1.006,2.182,2.801,3.842,5.056,4.674c1.009,0.372,2.058,0.561,3.119,0.561c1.299,0,2.564-0.28,3.761-0.831
		c1.834-0.845,3.311-2.264,4.228-4.042c-0.897,0.244-1.833,0.371-2.748,0.371c-2.805,0-5.442-1.094-7.426-3.077
		C7.822,11.443,6.73,8.805,6.73,6C6.73,5.546,6.76,5.091,6.819,4.641z"/>
	<path d="M14.23,6.754c-0.414,0-0.75-0.336-0.75-0.75v-1.5h-1.5c-0.414,0-0.75-0.336-0.75-0.75s0.336-0.75,0.75-0.75h1.5v-1.5
		c0-0.414,0.336-0.75,0.75-0.75s0.75,0.336,0.75,0.75v1.5h1.5c0.414,0,0.75,0.336,0.75,0.75s-0.336,0.75-0.75,0.75h-1.5v1.5
		C14.98,6.418,14.644,6.754,14.23,6.754z"/>
	<path d="M20.23,10.504c-0.414,0-0.75-0.336-0.75-0.75v-0.75h-0.75c-0.414,0-0.75-0.336-0.75-0.75s0.336-0.75,0.75-0.75h0.75v-0.75
		c0-0.414,0.336-0.75,0.75-0.75s0.75,0.336,0.75,0.75v0.75h0.75c0.414,0,0.75,0.336,0.75,0.75s-0.336,0.75-0.75,0.75h-0.75v0.75
		C20.98,10.168,20.644,10.504,20.23,10.504z"/>
</g>
</svg>
