<?xml version="1.0" encoding="utf-8"?>
<!-- Generator: Adobe Illustrator 22.1.0, SVG Export Plug-In . SVG Version: 6.00 Build 0)  -->
<svg version="1.1" id="Regular" xmlns="http://www.w3.org/2000/svg" xmlns:xlink="http://www.w3.org/1999/xlink" x="0px" y="0px"
	 viewBox="0 0 24 24" style="enable-background:new 0 0 24 24;" xml:space="preserve">
<title>weather-night-cloudy</title>
<g>
	<path d="M3.288,15.541c-0.097,0-0.191-0.018-0.281-0.054c-1.142-0.46-2.136-1.225-2.875-2.212
		c-0.186-0.249-0.201-0.581-0.037-0.845c0.136-0.219,0.38-0.354,0.638-0.354c0.045,0,0.09,0.004,0.135,0.012
		c0.292,0.054,0.589,0.081,0.883,0.081c0.711,0,1.402-0.156,2.053-0.463c2.43-1.148,3.473-4.06,2.324-6.49
		C5.873,4.682,5.524,4.204,5.091,3.795C4.866,3.582,4.795,3.258,4.911,2.97C5.026,2.685,5.299,2.5,5.607,2.5
		c3.362,0.025,6.21,2.556,6.629,5.886c0.025,0.199-0.029,0.395-0.152,0.554c-0.123,0.158-0.3,0.259-0.499,0.284
		c-0.032,0.004-0.062,0.006-0.092,0.006c-0.378,0-0.699-0.282-0.746-0.656c-0.245-1.944-1.59-3.586-3.393-4.254
		C7.4,4.403,7.442,4.486,7.483,4.571c1.503,3.181,0.14,6.989-3.038,8.491c-0.583,0.275-1.187,0.457-1.806,0.545
		c0.292,0.193,0.602,0.356,0.93,0.488c0.186,0.075,0.331,0.218,0.41,0.402c0.078,0.184,0.08,0.388,0.006,0.574
		C3.869,15.357,3.596,15.541,3.288,15.541z"/>
	<path d="M9.733,21.98c-0.674,0-1.346-0.153-1.949-0.442c-2.235-1.072-3.182-3.761-2.11-5.997c0.743-1.55,2.337-2.552,4.059-2.552
		c0.37,0,0.736,0.046,1.093,0.136c0.902-2.754,3.486-4.646,6.414-4.646c3.73,0.004,6.755,3.036,6.75,6.758
		c-0.004,3.718-3.032,6.742-6.75,6.742H9.733z M9.73,14.492c-1.148,0-2.209,0.667-2.704,1.698c-0.714,1.489-0.083,3.281,1.406,3.996
		c0.402,0.192,0.85,0.294,1.296,0.294c0,0,7.511,0,7.512,0c1.4,0,2.717-0.544,3.708-1.533c0.993-0.991,1.54-2.309,1.542-3.711
		c0.002-1.4-0.543-2.718-1.535-3.712c-0.992-0.994-2.309-1.542-3.709-1.544c-2.524,0-4.693,1.795-5.163,4.268
		c-0.001,0.003-0.004,0.02-0.005,0.025c-0.06,0.303-0.093,0.632-0.094,0.959c0,0.218,0.014,0.439,0.04,0.657
		c0.004,0.03,0.006,0.061,0.006,0.092c0,0.378-0.283,0.698-0.658,0.744c-0.034,0.004-0.063,0.006-0.092,0.006
		c-0.378,0-0.698-0.283-0.744-0.659c-0.034-0.278-0.052-0.561-0.052-0.841c0.001-0.212,0.012-0.423,0.033-0.633
		C10.26,14.528,9.997,14.492,9.73,14.492z"/>
</g>
</svg>
