<?xml version="1.0" encoding="utf-8"?>
<!-- Generator: Adobe Illustrator 22.1.0, SVG Export Plug-In . SVG Version: 6.00 Build 0)  -->
<svg version="1.1" id="Regular" xmlns="http://www.w3.org/2000/svg" xmlns:xlink="http://www.w3.org/1999/xlink" x="0px" y="0px"
	 viewBox="0 0 24 24" style="enable-background:new 0 0 24 24;" xml:space="preserve">
<title>weather-cloud</title>
<g>
	<path d="M4.5,13.734c-0.255,0-0.489-0.127-0.628-0.34c-0.423-0.647-0.697-1.382-0.803-2.144H0.75C0.336,11.25,0,10.914,0,10.5
		s0.336-0.75,0.75-0.75h2.327c0.015-0.107,0.032-0.207,0.053-0.305c0.157-0.75,0.479-1.459,0.936-2.069L2.417,5.727
		c-0.142-0.141-0.22-0.33-0.22-0.53s0.078-0.389,0.22-0.53c0.141-0.142,0.33-0.22,0.53-0.22s0.389,0.078,0.53,0.22l1.651,1.651
		c0.092-0.07,0.18-0.132,0.268-0.19C6.033,5.712,6.754,5.439,7.5,5.328V3c0-0.414,0.336-0.75,0.75-0.75S9,2.586,9,3v2.327
		c0.122,0.016,0.235,0.035,0.345,0.058c0.74,0.155,1.44,0.47,2.044,0.916l1.634-1.634c0.142-0.142,0.33-0.22,0.53-0.22
		s0.389,0.078,0.53,0.22c0.142,0.141,0.22,0.33,0.22,0.53s-0.078,0.389-0.22,0.53l-1.63,1.63c0.078,0.1,0.146,0.197,0.21,0.294
		c0.046,0.071,0.091,0.143,0.134,0.217c0.101,0.173,0.129,0.375,0.078,0.569c-0.051,0.194-0.174,0.356-0.347,0.457
		c-0.114,0.067-0.245,0.103-0.378,0.103c-0.266,0-0.514-0.142-0.648-0.371c-0.031-0.052-0.062-0.104-0.096-0.155
		c-0.548-0.839-1.389-1.414-2.37-1.619C8.78,6.799,8.519,6.772,8.259,6.772c-0.724,0-1.43,0.211-2.043,0.612
		c-0.839,0.548-1.414,1.389-1.619,2.37c-0.206,0.98-0.017,1.982,0.531,2.821c0.109,0.168,0.147,0.368,0.106,0.564
		c-0.041,0.196-0.156,0.364-0.324,0.474C4.788,13.692,4.646,13.734,4.5,13.734z"/>
	<path d="M9.75,21.75c-0.674,0-1.346-0.153-1.949-0.442c-2.235-1.072-3.182-3.761-2.11-5.997c0.743-1.55,2.337-2.552,4.059-2.552
		c0.37,0,0.736,0.045,1.093,0.136c0.902-2.754,3.486-4.646,6.414-4.646c1.811,0.002,3.505,0.706,4.779,1.983
		c1.273,1.277,1.974,2.972,1.971,4.775c-0.004,3.718-3.032,6.742-6.75,6.742H9.75z M17.268,20.25c2.88,0,5.236-2.353,5.239-5.244
		c0.002-1.402-0.543-2.721-1.533-3.714c-0.99-0.993-2.308-1.54-3.711-1.542c-2.524,0-4.693,1.795-5.164,4.268
		c0,0.001-0.003,0.016-0.005,0.022c-0.061,0.305-0.094,0.634-0.095,0.961c0,0.214,0.014,0.433,0.04,0.647
		c0.005,0.04,0.007,0.071,0.007,0.102c0,0.377-0.282,0.697-0.656,0.744c-0.032,0.004-0.063,0.006-0.094,0.006
		c-0.377,0-0.696-0.282-0.744-0.656C10.518,15.565,10.5,15.281,10.5,15c0.001-0.211,0.012-0.422,0.033-0.631
		c-0.259-0.072-0.521-0.109-0.783-0.109c-1.149,0-2.211,0.667-2.706,1.7c-0.714,1.489-0.083,3.281,1.406,3.996
		c0.381,0.183,0.833,0.284,1.308,0.294c0,0,7.492,0,7.495,0C17.257,20.25,17.264,20.25,17.268,20.25z"/>
</g>
</svg>
