<?xml version="1.0" encoding="utf-8"?>
<!-- Generator: Adobe Illustrator 22.1.0, SVG Export Plug-In . SVG Version: 6.00 Build 0)  -->
<svg version="1.1" id="Regular" xmlns="http://www.w3.org/2000/svg" xmlns:xlink="http://www.w3.org/1999/xlink" x="0px" y="0px"
	 viewBox="0 0 24 24" style="enable-background:new 0 0 24 24;" xml:space="preserve">
<title>weather-clouds</title>
<g>
	<path d="M9.774,22.935c-0.675,0-1.346-0.153-1.949-0.442c-1.083-0.519-1.898-1.428-2.297-2.561
		c-0.398-1.133-0.332-2.353,0.187-3.435s1.429-1.899,2.561-2.297c0.484-0.171,0.987-0.257,1.495-0.257
		c0.37,0,0.738,0.046,1.097,0.137c0.902-2.754,3.486-4.645,6.414-4.645c1.808,0.002,3.502,0.707,4.777,1.985
		c1.275,1.278,1.976,2.973,1.973,4.773c-0.002,1.803-0.706,3.497-1.983,4.771c-1.274,1.271-2.967,1.971-4.767,1.971H9.774z
		 M17.29,21.435c1.391,0,2.708-0.544,3.699-1.533c0.993-0.991,1.541-2.309,1.542-3.711c0.003-2.895-2.349-5.253-5.244-5.256
		c-2.524,0-4.693,1.795-5.163,4.268c0,0.003-0.004,0.017-0.005,0.022c-0.06,0.305-0.093,0.635-0.095,0.963
		c0,0.214,0.014,0.432,0.04,0.646c0.005,0.04,0.007,0.071,0.007,0.102c0,0.377-0.282,0.697-0.656,0.744
		c-0.032,0.004-0.063,0.006-0.094,0.006c-0.377,0-0.696-0.282-0.744-0.656c-0.035-0.279-0.053-0.562-0.053-0.844
		c0.001-0.212,0.012-0.423,0.033-0.632c-0.26-0.073-0.524-0.11-0.787-0.11c-0.338,0-0.673,0.058-0.997,0.172
		c-0.755,0.266-1.361,0.809-1.707,1.531c-0.346,0.721-0.39,1.534-0.124,2.289c0.266,0.755,0.809,1.361,1.53,1.707
		c0.395,0.189,0.846,0.291,1.303,0.294c0,0,7.497,0,7.5,0C17.28,21.435,17.286,21.435,17.29,21.435z"/>
	<path d="M4.513,15.435c-0.668,0-1.34-0.153-1.943-0.442c-1.083-0.519-1.898-1.428-2.297-2.561
		c-0.399-1.133-0.332-2.353,0.187-3.435c0.743-1.55,2.337-2.551,4.061-2.551c0.37,0,0.736,0.046,1.093,0.136
		c0.715-2.169,2.489-3.847,4.712-4.425c0.557-0.145,1.129-0.219,1.7-0.219c3.072,0,5.759,2.077,6.533,5.05
		c0.051,0.194,0.023,0.396-0.079,0.568c-0.102,0.173-0.264,0.296-0.458,0.346c-0.063,0.016-0.126,0.024-0.189,0.024
		c-0.342,0-0.64-0.231-0.726-0.561c-0.353-1.357-1.214-2.495-2.423-3.205c-0.807-0.474-1.723-0.724-2.648-0.724
		c-0.446,0-0.894,0.058-1.332,0.172C8.772,4.111,7.273,5.699,6.88,7.657C6.879,7.67,6.876,7.69,6.872,7.709
		C6.809,8.031,6.776,8.36,6.774,8.688c0,0.214,0.014,0.432,0.04,0.646c0.005,0.04,0.007,0.071,0.007,0.102
		c0,0.377-0.282,0.697-0.656,0.744c-0.032,0.004-0.063,0.006-0.094,0.006c-0.377,0-0.696-0.282-0.744-0.656
		C5.292,9.25,5.274,8.966,5.274,8.685c0.001-0.212,0.012-0.422,0.033-0.631C5.05,7.983,4.785,7.948,4.517,7.948
		c-1.148,0-2.21,0.666-2.704,1.698c-0.346,0.721-0.39,1.534-0.124,2.289c0.266,0.755,0.809,1.361,1.531,1.707
		c0.401,0.192,0.849,0.294,1.294,0.294c0.001,0,0.005,0,0.006,0c0.413,0,0.749,0.336,0.75,0.749c0,0.409-0.327,0.739-0.745,0.751
		C4.521,15.435,4.517,15.435,4.513,15.435z"/>
</g>
</svg>
