<?xml version="1.0" encoding="utf-8"?>
<!-- Generator: Adobe Illustrator 22.1.0, SVG Export Plug-In . SVG Version: 6.00 Build 0)  -->
<svg version="1.1" id="Regular" xmlns="http://www.w3.org/2000/svg" xmlns:xlink="http://www.w3.org/1999/xlink" x="0px" y="0px"
	 viewBox="0 0 24 24" style="enable-background:new 0 0 24 24;" xml:space="preserve">
<title>weather-cloud-wind</title>
<g>
	<path d="M18.2,17.839c-0.331,0-0.619-0.213-0.717-0.53c-0.059-0.192-0.04-0.395,0.054-0.571c0.094-0.177,0.251-0.307,0.442-0.366
		c2.683-0.824,4.5-3.263,4.521-6.069C22.41,6.795,19.466,3.93,15.938,3.93c-0.057,0-0.114,0.001-0.171,0.002
		C12.732,4.01,10.165,6.135,9.52,9.101C9.519,9.11,9.518,9.119,9.516,9.126c-0.08,0.391-0.121,0.789-0.123,1.187
		c0,0.262,0.017,0.528,0.051,0.791c0.053,0.41-0.237,0.786-0.647,0.84c-0.032,0.004-0.065,0.006-0.097,0.006
		c-0.375,0-0.694-0.28-0.743-0.652c-0.043-0.327-0.065-0.659-0.065-0.988c0-0.021,0.001-0.042,0.003-0.063
		c0.003-0.261,0.021-0.524,0.052-0.787c-0.374-0.118-0.76-0.18-1.134-0.182l-0.06,0c-2.042,0-3.725,1.666-3.751,3.713
		c0,0.202,0.018,0.411,0.054,0.617c0.071,0.407-0.203,0.796-0.61,0.867c-0.043,0.008-0.087,0.011-0.131,0.011
		c-0.364,0-0.674-0.261-0.737-0.621C1.525,13.574,1.5,13.277,1.5,12.981c0.036-2.871,2.4-5.203,5.27-5.203l0.053,0
		c0.481,0.002,0.974,0.074,1.446,0.208c1.056-3.25,4.007-5.465,7.461-5.554c0.067-0.002,0.134-0.002,0.2-0.002
		c4.339,0,7.96,3.526,8.071,7.86c-0.027,3.484-2.269,6.5-5.581,7.516C18.348,17.828,18.274,17.839,18.2,17.839z"/>
	<path d="M0.75,17.434c-0.414,0-0.75-0.336-0.75-0.75s0.336-0.75,0.75-0.75H12c0.413,0,0.75,0.336,0.75,0.75s-0.336,0.75-0.75,0.75
		H0.75z"/>
	<path d="M5.25,20.434c-0.414,0-0.75-0.336-0.75-0.75s0.336-0.75,0.75-0.75H16.5c0.414,0,0.75,0.336,0.75,0.75
		s-0.336,0.75-0.75,0.75H5.25z"/>
	<path d="M0.75,23.434c-0.414,0-0.75-0.336-0.75-0.75s0.336-0.75,0.75-0.75H12c0.413,0,0.75,0.336,0.75,0.75s-0.336,0.75-0.75,0.75
		H0.75z"/>
</g>
</svg>
