<?xml version="1.0" encoding="utf-8"?>
<!-- Generator: Adobe Illustrator 22.1.0, SVG Export Plug-In . SVG Version: 6.00 Build 0)  -->
<svg version="1.1" id="Regular" xmlns="http://www.w3.org/2000/svg" xmlns:xlink="http://www.w3.org/1999/xlink" x="0px" y="0px"
	 viewBox="0 0 24 24" style="enable-background:new 0 0 24 24;" xml:space="preserve">
<title>weather-cloud-hail</title>
<g>
	<path d="M5.23,22.239c-0.044,0-0.088-0.004-0.13-0.011c-0.513-0.06-0.923-0.47-0.983-0.983c-0.008-0.043-0.011-0.087-0.011-0.131
		s0.004-0.088,0.012-0.131c0.06-0.513,0.47-0.922,0.983-0.982c0.042-0.008,0.086-0.011,0.131-0.011c0.021,0,0.041,0.001,0.062,0.002
		l3.158-3.158c0.142-0.142,0.33-0.22,0.53-0.22s0.389,0.078,0.53,0.22c0.142,0.142,0.22,0.33,0.22,0.53s-0.078,0.389-0.22,0.53
		l-3.158,3.158c0.002,0.021,0.003,0.041,0.003,0.062c0,0.044-0.004,0.088-0.011,0.131c-0.06,0.513-0.47,0.922-0.983,0.983
		C5.318,22.235,5.274,22.239,5.23,22.239z"/>
	<path d="M8.23,15.114c-0.674,0-1.347-0.153-1.949-0.442c-1.083-0.519-1.898-1.428-2.297-2.561S3.652,9.759,4.171,8.676
		c0.743-1.55,2.336-2.552,4.059-2.552c0.37,0,0.736,0.046,1.093,0.136c0.902-2.754,3.486-4.646,6.414-4.646
		c1.809,0.002,3.502,0.707,4.777,1.985c1.275,1.278,1.976,2.973,1.973,4.773c-0.005,3.718-3.033,6.742-6.75,6.742H8.23z
		 M15.747,13.615c2.881,0,5.236-2.353,5.24-5.244c0.003-2.895-2.349-5.253-5.244-5.256c-2.524,0-4.693,1.795-5.164,4.268
		c-0.001,0.003-0.001,0.007-0.002,0.01c-0.063,0.321-0.096,0.649-0.098,0.975c0,0.214,0.014,0.432,0.04,0.648
		c0.005,0.037,0.007,0.068,0.007,0.099c0,0.377-0.282,0.697-0.656,0.744C9.838,9.862,9.807,9.864,9.776,9.864
		c-0.377,0-0.696-0.282-0.744-0.656C8.998,8.929,8.98,8.646,8.98,8.367c0.001-0.214,0.012-0.426,0.033-0.636
		C8.755,7.66,8.489,7.623,8.222,7.623c-0.337,0-0.67,0.057-0.992,0.171C6.475,8.06,5.869,8.603,5.523,9.324s-0.39,1.534-0.125,2.289
		s0.809,1.361,1.531,1.707c0.402,0.193,0.85,0.294,1.296,0.294c0,0,7.504,0,7.507,0C15.736,13.614,15.743,13.614,15.747,13.615z"/>
	<path d="M9.73,22.239c-0.044,0-0.088-0.004-0.13-0.011c-0.513-0.06-0.923-0.47-0.983-0.983c-0.008-0.043-0.011-0.087-0.011-0.131
		s0.004-0.088,0.012-0.131c0.06-0.513,0.47-0.922,0.983-0.982c0.042-0.008,0.086-0.011,0.131-0.011c0.021,0,0.041,0.001,0.062,0.002
		l3.158-3.158c0.142-0.142,0.33-0.22,0.53-0.22s0.389,0.078,0.53,0.22s0.22,0.33,0.22,0.53s-0.078,0.389-0.22,0.53l-3.158,3.158
		c0.002,0.021,0.003,0.041,0.003,0.062c0,0.044-0.004,0.088-0.012,0.131c-0.06,0.513-0.47,0.922-0.983,0.983
		C9.818,22.235,9.774,22.239,9.73,22.239z"/>
	<path d="M14.23,22.239c-0.044,0-0.088-0.004-0.131-0.011c-0.513-0.06-0.923-0.47-0.983-0.983c-0.008-0.042-0.011-0.086-0.011-0.131
		s0.004-0.088,0.011-0.131c0.06-0.513,0.47-0.923,0.983-0.983c0.042-0.008,0.086-0.011,0.131-0.011c0.021,0,0.042,0.001,0.062,0.002
		l3.158-3.158c0.142-0.142,0.33-0.22,0.53-0.22s0.389,0.078,0.53,0.22s0.22,0.33,0.22,0.53s-0.078,0.389-0.22,0.53l-3.158,3.158
		c0.001,0.02,0.002,0.041,0.002,0.062c0,0.044-0.004,0.088-0.011,0.131c-0.06,0.513-0.47,0.923-0.983,0.983
		C14.318,22.235,14.274,22.239,14.23,22.239z"/>
</g>
</svg>
