<?xml version="1.0" encoding="utf-8"?>
<!-- Generator: Adobe Illustrator 22.1.0, SVG Export Plug-In . SVG Version: 6.00 Build 0)  -->
<svg version="1.1" id="Regular" xmlns="http://www.w3.org/2000/svg" xmlns:xlink="http://www.w3.org/1999/xlink" x="0px" y="0px"
	 viewBox="0 0 24 24" style="enable-background:new 0 0 24 24;" xml:space="preserve">
<title>weather-cloud-hurricane</title>
<g>
	<path d="M4.465,15.927c-0.668,0-1.34-0.153-1.943-0.442c-1.083-0.519-1.898-1.428-2.297-2.561s-0.332-2.353,0.187-3.435
		c0.743-1.55,2.337-2.552,4.06-2.552c0.368,0,0.732,0.045,1.087,0.134c0.89-2.779,3.488-4.693,6.43-4.693
		c0.585,0,1.17,0.077,1.739,0.229c1.74,0.464,3.195,1.58,4.099,3.143c0.904,1.562,1.146,3.38,0.682,5.12
		c-0.088,0.328-0.385,0.557-0.724,0.557c-0.065,0-0.13-0.009-0.193-0.025c-0.194-0.052-0.356-0.176-0.456-0.349
		c-0.1-0.173-0.127-0.375-0.075-0.569c0.747-2.797-0.921-5.68-3.718-6.427c-0.443-0.118-0.898-0.178-1.353-0.178
		c-2.375,0-4.461,1.602-5.074,3.896C6.882,7.9,6.853,8.03,6.828,8.164c-0.002,0.014-0.004,0.029-0.006,0.04
		C6.758,8.523,6.725,8.852,6.723,9.179c0,0.214,0.014,0.432,0.04,0.647C6.769,9.866,6.77,9.897,6.77,9.928
		c0,0.377-0.282,0.697-0.656,0.744c-0.032,0.004-0.063,0.006-0.094,0.006c-0.377,0-0.697-0.282-0.744-0.656
		c-0.035-0.28-0.053-0.563-0.053-0.844c0.001-0.211,0.012-0.422,0.033-0.631C5,8.476,4.736,8.44,4.469,8.44
		c-1.148,0-2.209,0.666-2.704,1.698c-0.346,0.721-0.39,1.534-0.124,2.289c0.266,0.755,0.809,1.361,1.531,1.707
		c0.401,0.192,0.849,0.294,1.294,0.294c0.001,0,0.005,0,0.006,0c0.413,0,0.749,0.336,0.75,0.749c0,0.412-0.338,0.749-0.754,0.751
		C4.467,15.927,4.466,15.927,4.465,15.927z"/>
	<path d="M13.393,16.026c-1.349,0-2.896-0.405-4.729-1.239c-0.376-0.171-0.544-0.616-0.373-0.993c0.122-0.267,0.39-0.44,0.683-0.44
		c0.108,0,0.212,0.023,0.31,0.067c1.634,0.742,2.973,1.104,4.094,1.104c1.143,0,1.918-0.365,2.738-0.751
		c0.883-0.416,1.794-0.845,3.089-0.845c1.241,0,2.665,0.41,4.354,1.254c0.37,0.185,0.52,0.636,0.335,1.006
		c-0.128,0.256-0.385,0.415-0.671,0.415c-0.115,0-0.231-0.027-0.334-0.079c-1.505-0.752-2.669-1.103-3.667-1.103
		c-0.963,0-1.659,0.328-2.466,0.708C15.865,15.551,14.855,16.026,13.393,16.026z"/>
	<path d="M13.393,19.026c-1.349,0-2.896-0.405-4.729-1.239c-0.376-0.171-0.544-0.616-0.373-0.993c0.122-0.267,0.39-0.44,0.683-0.44
		c0.108,0,0.212,0.023,0.311,0.068c1.633,0.742,2.973,1.103,4.094,1.103c1.143,0,1.918-0.365,2.738-0.751
		c0.882-0.415,1.794-0.844,3.089-0.844c1.241,0,2.666,0.41,4.354,1.254c0.37,0.185,0.52,0.636,0.335,1.006
		c-0.128,0.256-0.385,0.415-0.671,0.415l0,0c-0.115,0-0.231-0.027-0.335-0.079c-1.504-0.752-2.669-1.103-3.666-1.103
		c-0.963,0-1.659,0.328-2.466,0.708C15.865,18.551,14.855,19.026,13.393,19.026z"/>
	<path d="M13.393,22.026c-1.349,0-2.896-0.405-4.729-1.239c-0.376-0.171-0.544-0.616-0.373-0.993c0.122-0.267,0.39-0.44,0.683-0.44
		c0.108,0,0.212,0.023,0.311,0.068c1.633,0.742,2.973,1.103,4.094,1.103c1.143,0,1.918-0.365,2.738-0.751
		c0.882-0.415,1.794-0.844,3.089-0.844c1.241,0,2.666,0.41,4.354,1.254c0.37,0.185,0.52,0.636,0.335,1.006
		c-0.128,0.256-0.385,0.415-0.671,0.415l0,0c-0.115,0-0.231-0.027-0.335-0.079c-1.504-0.752-2.669-1.103-3.666-1.103
		c-0.963,0-1.659,0.328-2.466,0.708C15.865,21.551,14.855,22.026,13.393,22.026z"/>
</g>
</svg>
