<?xml version="1.0" encoding="utf-8"?>
<!-- Generator: Adobe Illustrator 22.1.0, SVG Export Plug-In . SVG Version: 6.00 Build 0)  -->
<svg version="1.1" id="Regular" xmlns="http://www.w3.org/2000/svg" xmlns:xlink="http://www.w3.org/1999/xlink" x="0px" y="0px"
	 viewBox="0 0 24 24" style="enable-background:new 0 0 24 24;" xml:space="preserve">
<title>weather-cloud-rain</title>
<g>
	<path d="M5.024,22.684c-0.2,0-0.389-0.078-0.53-0.22c-0.292-0.292-0.292-0.768,0-1.061l3.75-3.75c0.142-0.142,0.33-0.22,0.53-0.22
		l0,0c0.2,0,0.389,0.078,0.53,0.22c0.292,0.292,0.292,0.768,0,1.061l-3.75,3.75C5.413,22.606,5.224,22.684,5.024,22.684z"/>
	<path d="M10.274,22.684c-0.2,0-0.389-0.078-0.53-0.22c-0.142-0.142-0.22-0.33-0.22-0.53s0.078-0.389,0.22-0.53l3.75-3.75
		c0.142-0.142,0.33-0.22,0.53-0.22l0,0c0.2,0,0.389,0.078,0.53,0.22c0.292,0.292,0.292,0.768,0,1.061l-3.75,3.75
		C10.663,22.606,10.474,22.684,10.274,22.684z"/>
	<path d="M6.524,15.934c-0.675,0-1.347-0.153-1.949-0.442c-1.083-0.519-1.898-1.428-2.297-2.561
		c-0.399-1.133-0.332-2.353,0.187-3.435c0.519-1.083,1.429-1.899,2.561-2.297C5.51,7.028,6.013,6.942,6.521,6.942
		c0.37,0,0.738,0.046,1.096,0.137c0.902-2.754,3.486-4.645,6.414-4.645c1.811,0.002,3.505,0.706,4.779,1.983
		c1.273,1.276,1.973,2.972,1.971,4.775c-0.002,1.803-0.707,3.497-1.983,4.77c-1.274,1.271-2.967,1.971-4.767,1.971H6.524z
		 M6.52,8.442c-0.338,0-0.673,0.058-0.997,0.172c-0.755,0.266-1.361,0.809-1.706,1.531c-0.346,0.721-0.39,1.534-0.124,2.289
		c0.266,0.755,0.809,1.361,1.53,1.707c0.401,0.192,0.849,0.294,1.294,0.294c0,0,7.522,0,7.528,0
		c1.395-0.004,2.706-0.548,3.693-1.533c0.993-0.99,1.541-2.308,1.542-3.711c0.002-1.402-0.543-2.721-1.533-3.714
		c-0.99-0.993-2.308-1.54-3.711-1.542c-2.524,0-4.693,1.795-5.164,4.268c0,0.001-0.003,0.017-0.005,0.024
		C8.809,8.53,8.776,8.859,8.774,9.187c0,0.213,0.013,0.431,0.04,0.646c0.005,0.04,0.007,0.071,0.007,0.102
		c0,0.377-0.282,0.697-0.656,0.744c-0.032,0.004-0.063,0.006-0.094,0.006c-0.377,0-0.696-0.282-0.744-0.656
		C7.292,9.749,7.274,9.466,7.274,9.187c0.001-0.214,0.012-0.425,0.033-0.635C7.046,8.479,6.783,8.442,6.52,8.442z"/>
</g>
</svg>
