<?xml version="1.0" encoding="utf-8"?>
<!-- Generator: Adobe Illustrator 22.1.0, SVG Export Plug-In . SVG Version: 6.00 Build 0)  -->
<svg version="1.1" id="Regular" xmlns="http://www.w3.org/2000/svg" xmlns:xlink="http://www.w3.org/1999/xlink" x="0px" y="0px"
	 viewBox="0 0 24 24" style="enable-background:new 0 0 24 24;" xml:space="preserve">
<title>weather-cloud-rainbow</title>
<g>
	<path d="M11.4,9.455c-0.262,0-0.509-0.14-0.644-0.365C8.674,5.607,4.862,3.441,0.805,3.434C0.797,3.435,0.779,3.435,0.779,3.435
		c-0.011,0-0.022,0-0.033-0.002c-0.4-0.016-0.72-0.346-0.72-0.749c0-0.407,0.337-0.743,0.752-0.75c4.596,0,8.911,2.447,11.266,6.386
		c0.212,0.355,0.096,0.817-0.259,1.029C11.668,9.418,11.536,9.455,11.4,9.455L11.4,9.455z"/>
	<path d="M8.893,11.115c-0.267,0-0.516-0.143-0.65-0.374C6.708,8.084,3.848,6.434,0.779,6.434c-0.417,0-0.753-0.336-0.753-0.75
		c0-0.417,0.329-0.747,0.75-0.75c3.605,0,6.963,1.937,8.766,5.056c0.207,0.358,0.084,0.818-0.274,1.025
		C9.155,11.08,9.025,11.115,8.893,11.115C8.894,11.115,8.894,11.115,8.893,11.115z"/>
	<path d="M6.4,12.805c-0.277,0-0.531-0.152-0.662-0.396c-0.98-1.835-2.881-2.975-4.961-2.975c-0.415,0-0.751-0.336-0.751-0.75
		c0-0.414,0.336-0.75,0.75-0.75c2.636,0,5.044,1.444,6.286,3.767c0.195,0.365,0.057,0.82-0.308,1.015
		C6.645,12.774,6.523,12.805,6.4,12.805z"/>
	<path d="M9.776,22.934c-0.675,0-1.347-0.153-1.949-0.442c-1.083-0.519-1.898-1.428-2.297-2.561s-0.332-2.353,0.187-3.435
		c0.519-1.083,1.428-1.898,2.561-2.297c0.485-0.171,0.988-0.257,1.495-0.257c0.371,0,0.738,0.046,1.097,0.137
		c0.902-2.754,3.486-4.645,6.414-4.645c1.808,0.002,3.502,0.707,4.777,1.985c1.275,1.278,1.976,2.973,1.973,4.773
		c-0.002,1.803-0.706,3.497-1.983,4.771c-1.274,1.271-2.967,1.971-4.767,1.971H9.776z M9.773,15.442
		c-0.338,0-0.673,0.058-0.996,0.172c-0.755,0.266-1.361,0.809-1.707,1.531c-0.346,0.721-0.39,1.534-0.124,2.289
		c0.266,0.755,0.809,1.361,1.531,1.707c0.394,0.189,0.844,0.291,1.303,0.294c0,0,7.512,0,7.517,0
		c1.395-0.003,2.707-0.547,3.695-1.533c0.993-0.991,1.54-2.309,1.542-3.711c0.003-2.895-2.349-5.253-5.244-5.256
		c-2.524,0-4.693,1.795-5.163,4.268c0,0.003-0.004,0.017-0.005,0.022c-0.06,0.305-0.093,0.635-0.095,0.963
		c0,0.213,0.014,0.431,0.04,0.646c0.005,0.039,0.007,0.071,0.007,0.102c0,0.377-0.282,0.697-0.656,0.744
		c-0.032,0.004-0.063,0.006-0.094,0.006c-0.377,0-0.697-0.282-0.744-0.657c-0.035-0.28-0.053-0.563-0.053-0.843
		c0.001-0.212,0.012-0.423,0.033-0.632C10.299,15.479,10.035,15.442,9.773,15.442z"/>
</g>
</svg>
