<?xml version="1.0" encoding="utf-8"?>
<!-- Generator: Adobe Illustrator 22.1.0, SVG Export Plug-In . SVG Version: 6.00 Build 0)  -->
<svg version="1.1" id="Regular" xmlns="http://www.w3.org/2000/svg" xmlns:xlink="http://www.w3.org/1999/xlink" x="0px" y="0px"
	 viewBox="0 0 24 24" style="enable-background:new 0 0 24 24;" xml:space="preserve">
<title>weather-cloud-snow</title>
<g>
	<path d="M7.657,19.364c-0.044,0-0.088-0.004-0.13-0.011c-0.513-0.06-0.923-0.47-0.983-0.983c-0.008-0.043-0.011-0.087-0.011-0.131
		s0.004-0.088,0.011-0.131c0.06-0.513,0.47-0.922,0.983-0.982c0.042-0.008,0.086-0.011,0.13-0.011s0.088,0.004,0.13,0.011
		c0.513,0.06,0.923,0.469,0.983,0.982c0.008,0.043,0.011,0.087,0.011,0.131S8.778,18.327,8.77,18.37
		c-0.06,0.513-0.47,0.922-0.983,0.983C7.745,19.36,7.701,19.364,7.657,19.364z"/>
	<path d="M12.157,19.364c-0.044,0-0.088-0.004-0.13-0.011c-0.513-0.06-0.923-0.47-0.983-0.983c-0.008-0.043-0.012-0.087-0.012-0.131
		s0.004-0.088,0.012-0.131c0.06-0.513,0.47-0.922,0.983-0.982c0.042-0.008,0.086-0.011,0.131-0.011s0.088,0.004,0.13,0.011
		c0.513,0.06,0.923,0.47,0.983,0.983c0.008,0.042,0.011,0.086,0.011,0.131s-0.004,0.088-0.011,0.131
		c-0.06,0.513-0.47,0.923-0.983,0.983C12.245,19.36,12.201,19.364,12.157,19.364z"/>
	<path d="M16.656,19.364c-0.044,0-0.088-0.004-0.131-0.011c-0.513-0.06-0.923-0.47-0.983-0.983c-0.007-0.042-0.011-0.086-0.011-0.13
		s0.004-0.088,0.011-0.131c0.06-0.513,0.47-0.923,0.983-0.983c0.042-0.008,0.086-0.011,0.131-0.011s0.088,0.004,0.131,0.011
		c0.513,0.06,0.923,0.47,0.983,0.983c0.008,0.042,0.011,0.086,0.011,0.131s-0.004,0.088-0.011,0.131
		c-0.06,0.513-0.47,0.923-0.983,0.983C16.745,19.36,16.701,19.364,16.656,19.364z"/>
	<path d="M6.157,23.864c-0.044,0-0.088-0.004-0.13-0.011c-0.513-0.06-0.923-0.47-0.983-0.983c-0.008-0.043-0.011-0.087-0.011-0.131
		s0.004-0.088,0.011-0.131c0.06-0.513,0.47-0.922,0.983-0.982c0.042-0.008,0.086-0.011,0.13-0.011s0.088,0.004,0.13,0.011
		c0.513,0.06,0.923,0.469,0.983,0.982c0.008,0.043,0.011,0.087,0.011,0.131S7.278,22.827,7.27,22.87
		c-0.06,0.513-0.47,0.922-0.983,0.983C6.245,23.86,6.201,23.864,6.157,23.864z"/>
	<path d="M10.657,23.864c-0.044,0-0.088-0.004-0.13-0.011c-0.513-0.06-0.923-0.47-0.983-0.983c-0.008-0.043-0.011-0.087-0.011-0.131
		s0.004-0.088,0.011-0.131c0.06-0.513,0.47-0.922,0.983-0.982c0.042-0.008,0.086-0.011,0.13-0.011s0.088,0.004,0.13,0.011
		c0.513,0.06,0.923,0.469,0.983,0.982c0.008,0.043,0.011,0.087,0.011,0.131s-0.004,0.088-0.011,0.131
		c-0.06,0.513-0.47,0.922-0.983,0.983C10.745,23.86,10.701,23.864,10.657,23.864z"/>
	<path d="M15.156,23.864c-0.044,0-0.088-0.004-0.131-0.011c-0.513-0.06-0.923-0.47-0.983-0.983c-0.007-0.042-0.011-0.086-0.011-0.13
		s0.004-0.088,0.011-0.131c0.06-0.513,0.47-0.923,0.983-0.983c0.042-0.008,0.086-0.011,0.131-0.011s0.088,0.004,0.131,0.011
		c0.513,0.06,0.923,0.47,0.983,0.983c0.008,0.042,0.011,0.086,0.011,0.131s-0.004,0.088-0.011,0.131
		c-0.06,0.513-0.47,0.923-0.983,0.983C15.245,23.86,15.201,23.864,15.156,23.864z"/>
	<path d="M7.657,15.239c-0.674,0-1.346-0.153-1.949-0.442c-1.081-0.518-1.896-1.428-2.295-2.562
		c-0.399-1.134-0.333-2.354,0.185-3.435c0.743-1.55,2.336-2.552,4.059-2.552c0.37,0,0.736,0.046,1.093,0.136
		c0.902-2.754,3.486-4.646,6.414-4.646c3.73,0.004,6.755,3.036,6.75,6.758c-0.004,3.718-3.032,6.742-6.75,6.742H7.657z M7.654,7.752
		c-1.148,0-2.209,0.667-2.704,1.698c-0.714,1.489-0.083,3.281,1.406,3.995c0.388,0.186,0.839,0.288,1.305,0.294c0,0,7.501,0,7.502,0
		c1.4,0,2.717-0.544,3.708-1.533c0.993-0.99,1.541-2.308,1.542-3.71c0.002-1.4-0.543-2.718-1.535-3.712S16.57,3.241,15.17,3.239
		c-2.524,0-4.693,1.795-5.163,4.268c0,0.003-0.004,0.019-0.005,0.024c-0.06,0.303-0.093,0.632-0.094,0.96
		c0,0.214,0.014,0.432,0.04,0.646c0.005,0.04,0.007,0.071,0.007,0.102c0,0.377-0.282,0.697-0.656,0.744
		C9.265,9.987,9.234,9.989,9.203,9.989c-0.377,0-0.696-0.282-0.744-0.656C8.424,9.054,8.407,8.771,8.407,8.489
		C8.408,8.277,8.419,8.066,8.44,7.857C8.184,7.787,7.921,7.752,7.654,7.752z"/>
</g>
</svg>
