<?xml version="1.0" encoding="utf-8"?>
<!-- Generator: Adobe Illustrator 22.1.0, SVG Export Plug-In . SVG Version: 6.00 Build 0)  -->
<svg version="1.1" id="Regular" xmlns="http://www.w3.org/2000/svg" xmlns:xlink="http://www.w3.org/1999/xlink" x="0px" y="0px"
	 viewBox="0 0 24 24" style="enable-background:new 0 0 24 24;" xml:space="preserve">
<title>weather-cloud-snow-thunder</title>
<g>
	<path d="M9.907,21.809c-0.2,0-0.389-0.078-0.53-0.22c-0.142-0.142-0.22-0.33-0.22-0.53s0.078-0.389,0.22-0.53l2.47-2.47H9.157
		c-0.305,0-0.577-0.182-0.693-0.463c-0.117-0.281-0.053-0.602,0.163-0.817l1.72-1.719H7.657c-0.675,0-1.347-0.153-1.949-0.442
		c-1.083-0.519-1.898-1.428-2.297-2.561c-0.399-1.133-0.332-2.353,0.187-3.435c0.743-1.55,2.337-2.552,4.059-2.552
		c0.37,0,0.736,0.046,1.093,0.136c0.902-2.754,3.486-4.646,6.414-4.646c1.811,0.002,3.505,0.706,4.779,1.983
		c1.273,1.276,1.973,2.972,1.971,4.775c-0.002,1.803-0.706,3.497-1.983,4.77c-1.274,1.271-2.967,1.971-4.767,1.971h-2.697l-1.5,1.5
		h2.69c0.304,0,0.576,0.182,0.693,0.463s0.053,0.602-0.163,0.817l-3.75,3.75C10.296,21.731,10.107,21.809,9.907,21.809z
		 M15.174,13.559c1.391,0,2.707-0.545,3.698-1.533c0.993-0.991,1.541-2.308,1.542-3.711c0.002-1.402-0.543-2.722-1.533-3.714
		c-0.99-0.993-2.308-1.54-3.711-1.542c-2.524,0-4.693,1.795-5.163,4.268c0,0-0.001,0.005-0.001,0.007
		c-0.064,0.32-0.097,0.649-0.099,0.977c0,0.214,0.014,0.432,0.04,0.647c0.005,0.04,0.007,0.071,0.007,0.101
		c0,0.377-0.282,0.697-0.656,0.744C9.265,9.807,9.234,9.809,9.203,9.809c-0.377,0-0.696-0.282-0.744-0.656
		C8.425,8.874,8.407,8.59,8.407,8.309C8.408,8.098,8.419,7.887,8.44,7.678C8.181,7.606,7.918,7.569,7.656,7.569
		c-1.149,0-2.211,0.667-2.706,1.7c-0.346,0.721-0.39,1.534-0.124,2.289c0.266,0.755,0.809,1.361,1.531,1.707
		c0.401,0.192,0.849,0.294,1.294,0.294c0,0,7.506,0,7.509,0C15.163,13.559,15.17,13.559,15.174,13.559z"/>
	<path d="M5.782,22.184c-0.044,0-0.088-0.004-0.13-0.011c-0.513-0.06-0.923-0.47-0.983-0.983c-0.008-0.043-0.011-0.087-0.011-0.131
		s0.004-0.088,0.011-0.131c0.06-0.513,0.47-0.922,0.983-0.982c0.042-0.008,0.086-0.011,0.13-0.011s0.088,0.004,0.13,0.011
		c0.513,0.06,0.923,0.469,0.983,0.982c0.008,0.043,0.011,0.087,0.011,0.131s-0.004,0.088-0.011,0.131
		c-0.06,0.513-0.47,0.922-0.983,0.983C5.87,22.18,5.826,22.184,5.782,22.184z"/>
	<path d="M15.532,22.184c-0.044,0-0.088-0.004-0.13-0.011c-0.513-0.06-0.923-0.47-0.983-0.983c-0.008-0.042-0.011-0.086-0.011-0.131
		s0.004-0.088,0.011-0.131c0.06-0.513,0.47-0.923,0.983-0.983c0.042-0.008,0.086-0.011,0.131-0.011s0.088,0.004,0.131,0.011
		c0.513,0.06,0.923,0.47,0.983,0.983c0.008,0.042,0.011,0.086,0.011,0.131s-0.004,0.088-0.011,0.131
		c-0.06,0.513-0.47,0.923-0.983,0.983C15.62,22.18,15.576,22.184,15.532,22.184z"/>
</g>
</svg>
