<?xml version="1.0" encoding="utf-8"?>
<!-- Generator: Adobe Illustrator 22.1.0, SVG Export Plug-In . SVG Version: 6.00 Build 0)  -->
<svg version="1.1" id="Regular" xmlns="http://www.w3.org/2000/svg" xmlns:xlink="http://www.w3.org/1999/xlink" x="0px" y="0px"
	 viewBox="0 0 24 24" style="enable-background:new 0 0 24 24;" xml:space="preserve">
<title>weather-cloud-rain-thunder</title>
<g>
	<path d="M13.274,23.184c-0.2,0-0.389-0.078-0.53-0.22c-0.292-0.292-0.292-0.768,0-1.061l2.25-2.25c0.142-0.142,0.33-0.22,0.53-0.22
		s0.389,0.078,0.53,0.22c0.292,0.292,0.292,0.768,0,1.061l-2.25,2.25C13.662,23.106,13.474,23.184,13.274,23.184z"/>
	<path d="M4.274,23.184c-0.2,0-0.389-0.078-0.53-0.22c-0.292-0.292-0.292-0.768,0-1.061l2.25-2.25c0.142-0.142,0.33-0.22,0.53-0.22
		s0.389,0.078,0.53,0.22c0.292,0.292,0.292,0.768,0,1.061l-2.25,2.25C4.663,23.106,4.474,23.184,4.274,23.184z"/>
	<path d="M9.524,22.434c-0.2,0-0.389-0.078-0.53-0.22c-0.292-0.292-0.292-0.768,0-1.061l2.47-2.47H8.774
		c-0.305,0-0.577-0.182-0.693-0.463c-0.117-0.281-0.053-0.602,0.163-0.817l1.72-1.719H7.274c-0.675,0-1.347-0.153-1.949-0.442
		c-1.083-0.519-1.898-1.428-2.297-2.561c-0.399-1.133-0.332-2.353,0.187-3.435c0.519-1.083,1.429-1.899,2.561-2.297
		C6.26,6.778,6.763,6.692,7.271,6.692c0.37,0,0.738,0.046,1.096,0.137c0.902-2.754,3.486-4.645,6.414-4.645
		c1.811,0.002,3.505,0.706,4.779,1.983c1.273,1.276,1.973,2.972,1.971,4.775c-0.002,1.803-0.707,3.497-1.983,4.77
		c-1.274,1.271-2.967,1.971-4.767,1.971h-2.697l-1.5,1.5h2.689c0.304,0,0.576,0.182,0.693,0.463s0.053,0.602-0.163,0.817l-3.75,3.75
		C9.913,22.356,9.724,22.434,9.524,22.434z M7.27,8.192c-0.338,0-0.673,0.058-0.997,0.172C5.519,8.629,4.913,9.173,4.567,9.894
		c-0.346,0.721-0.39,1.534-0.124,2.289c0.266,0.755,0.809,1.361,1.53,1.707c0.401,0.192,0.849,0.294,1.294,0.294
		c0,0,7.521,0,7.527,0c1.395-0.003,2.706-0.548,3.694-1.533c0.993-0.99,1.541-2.308,1.542-3.711
		c0.002-1.402-0.543-2.721-1.533-3.714c-0.99-0.993-2.308-1.54-3.711-1.542c-2.524,0-4.693,1.795-5.164,4.268
		c0,0.001-0.003,0.017-0.005,0.024C9.559,8.28,9.526,8.609,9.524,8.937c0,0.213,0.013,0.431,0.04,0.646
		c0.005,0.04,0.007,0.071,0.007,0.102c0,0.377-0.282,0.697-0.656,0.744c-0.032,0.004-0.063,0.006-0.094,0.006
		c-0.377,0-0.696-0.282-0.744-0.656C8.042,9.499,8.024,9.216,8.024,8.937c0.001-0.214,0.012-0.425,0.033-0.635
		C7.796,8.229,7.533,8.192,7.27,8.192z"/>
</g>
</svg>
