<?xml version="1.0" encoding="utf-8"?>
<!-- Generator: Adobe Illustrator 22.1.0, SVG Export Plug-In . SVG Version: 6.00 Build 0)  -->
<svg version="1.1" id="Regular" xmlns="http://www.w3.org/2000/svg" xmlns:xlink="http://www.w3.org/1999/xlink" x="0px" y="0px"
	 viewBox="0 0 24 24" style="enable-background:new 0 0 24 24;" xml:space="preserve">
<title>weather-cloud-thunder-rain</title>
<g>
	<path d="M11.159,22.184c-0.2,0-0.389-0.078-0.53-0.22c-0.292-0.292-0.292-0.768,0-1.061l2.47-2.47h-2.689
		c-0.305,0-0.577-0.182-0.693-0.463c-0.117-0.281-0.053-0.602,0.163-0.817l1.72-1.719H8.909c-0.675,0-1.347-0.153-1.949-0.442
		c-1.083-0.519-1.898-1.428-2.297-2.561c-0.399-1.133-0.332-2.353,0.187-3.435c0.519-1.083,1.429-1.899,2.561-2.297
		c0.484-0.171,0.988-0.257,1.495-0.257c0.37,0,0.738,0.046,1.096,0.137c0.902-2.754,3.486-4.645,6.414-4.645
		c1.811,0.002,3.505,0.706,4.779,1.983c1.273,1.276,1.973,2.972,1.971,4.775c-0.002,1.803-0.706,3.497-1.983,4.77
		c-1.274,1.271-2.967,1.971-4.767,1.971H13.72l-1.5,1.5h2.689c0.304,0,0.576,0.182,0.693,0.463s0.053,0.602-0.163,0.817l-3.75,3.75
		C11.548,22.106,11.359,22.184,11.159,22.184z M8.906,7.942C8.568,7.942,8.233,8,7.909,8.114C7.154,8.379,6.548,8.923,6.202,9.644
		c-0.346,0.721-0.39,1.534-0.124,2.289c0.266,0.755,0.809,1.361,1.53,1.707c0.401,0.192,0.849,0.294,1.294,0.294h7.506
		c1.407,0,2.724-0.544,3.715-1.533c0.993-0.991,1.54-2.308,1.542-3.711c0.002-1.402-0.543-2.722-1.533-3.714
		c-0.99-0.993-2.308-1.54-3.711-1.542c-2.524,0-4.693,1.795-5.163,4.268c0,0.001-0.001,0.005-0.001,0.007
		c-0.064,0.321-0.097,0.65-0.098,0.977c0,0.213,0.013,0.431,0.04,0.646c0.005,0.04,0.007,0.071,0.007,0.102
		c0,0.377-0.282,0.697-0.656,0.744c-0.032,0.004-0.063,0.006-0.094,0.006c-0.377,0-0.696-0.282-0.744-0.656
		C9.677,9.249,9.659,8.966,9.659,8.687C9.66,8.473,9.671,8.262,9.692,8.052C9.431,7.979,9.168,7.942,8.906,7.942z"/>
	<path d="M4.409,22.559c-0.62,0-1.125-0.505-1.125-1.125s0.505-1.125,1.125-1.125c0.021,0,0.042,0.001,0.063,0.002l3.157-3.157
		c0.142-0.142,0.33-0.22,0.53-0.22c0.2,0,0.389,0.078,0.53,0.22c0.142,0.142,0.22,0.33,0.22,0.53s-0.078,0.389-0.22,0.53
		l-3.157,3.157c0.001,0.021,0.002,0.042,0.002,0.062C5.534,22.054,5.029,22.559,4.409,22.559z"/>
	<path d="M16.409,22.559c-0.62,0-1.125-0.505-1.125-1.125s0.505-1.125,1.125-1.125c0.021,0,0.042,0.001,0.062,0.002l3.157-3.157
		c0.142-0.142,0.33-0.22,0.53-0.22s0.389,0.078,0.53,0.22s0.22,0.33,0.22,0.53s-0.078,0.389-0.22,0.53l-3.157,3.157
		c0.001,0.021,0.002,0.042,0.002,0.062C17.534,22.054,17.029,22.559,16.409,22.559z"/>
</g>
</svg>
