<svg width="56" height="56" viewBox="0 0 56 56" fill="none" xmlns="http://www.w3.org/2000/svg">
<path d="M0 2C0 0.89543 0.895431 0 2 0H54C55.1046 0 56 0.895431 56 2V54C56 55.1046 55.1046 56 54 56H2C0.89543 56 0 55.1046 0 54V2Z" fill="#A00A00"/>
<path d="M27.9983 33.9991C28.6196 33.9991 29.1233 33.4955 29.1233 32.8741C29.1233 32.2528 28.6196 31.7491 27.9983 31.7491C27.377 31.7491 26.8733 32.2528 26.8733 32.8741C26.8733 33.4955 27.377 33.9991 27.9983 33.9991Z" fill="white"/>
<path d="M27.9983 30.2491C27.5843 30.2491 27.2483 29.9131 27.2483 29.4991V21.9991C27.2483 21.5851 27.5843 21.2491 27.9983 21.2491C28.4123 21.2491 28.7483 21.5851 28.7483 21.9991V29.4991C28.7483 29.9131 28.4113 30.2491 27.9983 30.2491Z" fill="white"/>
<path d="M27.9985 39.998C27.3145 39.998 26.6715 39.732 26.1885 39.25L16.7485 29.811C15.7505 28.813 15.7505 27.188 16.7485 26.19L26.1885 16.751C26.6705 16.268 27.3125 16.001 27.9955 16C28.6805 16 29.3225 16.265 29.8055 16.747C29.8125 16.754 39.2495 26.19 39.2495 26.19C40.2465 27.189 40.2465 28.813 39.2495 29.811L29.8095 39.25C29.3255 39.732 28.6825 39.998 27.9985 39.998ZM27.2485 38.189C27.4485 38.388 27.7145 38.498 27.9985 38.498C28.2825 38.498 28.5485 38.388 28.7485 38.188L38.1885 28.749C38.6015 28.335 38.6015 27.662 38.1885 27.248L28.7475 17.811C28.7375 17.802 28.7235 17.786 28.7145 17.776C28.5425 17.607 28.2775 17.5 28.0015 17.5C27.7135 17.5 27.4485 17.611 27.2485 17.811L17.8075 27.251C17.3945 27.665 17.3945 28.338 17.8075 28.751L27.2485 38.189Z" fill="white"/>
</svg>
