<svg width="56" height="56" viewBox="0 0 56 56" fill="none" xmlns="http://www.w3.org/2000/svg">
<g clip-path="url(#clip0_125_33)">
<path d="M0 2C0 0.89543 0.895431 0 2 0H54C55.1046 0 56 0.895431 56 2V54C56 55.1046 55.1046 56 54 56H2C0.89543 56 0 55.1046 0 54V2Z" fill="#AF5F00"/>
<path d="M28.0009 41.7489C26.9676 41.7489 26.126 40.9072 26.126 39.8739C26.126 38.8407 26.9676 37.999 28.0009 37.999C29.0342 37.999 29.8758 38.8407 29.8758 39.8739C29.8758 40.9072 29.0342 41.7489 28.0009 41.7489Z" fill="white"/>
<path d="M28.0009 35.4984C27.311 35.4984 26.751 34.9384 26.751 34.2484V21.749C26.751 21.059 27.311 20.499 28.0009 20.499C28.6892 20.499 29.2509 21.059 29.2509 21.749V34.2484C29.2509 34.9367 28.6892 35.4984 28.0009 35.4984Z" fill="white"/>
<path d="M11.7882 47.9983C11.2099 47.9983 10.6333 47.8633 10.1166 47.6099C9.21169 47.165 8.53172 46.3917 8.20506 45.435C7.87841 44.4784 7.94341 43.4501 8.39005 42.5452L24.176 10.3816C24.5894 9.53993 25.281 8.84996 26.121 8.43665C26.7109 8.14666 27.3409 8 27.9942 8C29.6341 8 31.1024 8.91163 31.824 10.3816L47.6117 42.5435C47.865 43.0601 48 43.6368 48 44.2151C48 45.2267 47.605 46.1783 46.8884 46.8916C46.1751 47.6049 45.2251 47.9983 44.2152 47.9983H11.7882ZM27.9959 10.4999C27.7275 10.4999 27.4659 10.5599 27.2242 10.6799C26.8776 10.8499 26.5909 11.1365 26.4209 11.4832L10.6333 43.6468C10.32 44.2834 10.5833 45.0551 11.2199 45.3667C11.3949 45.4534 11.5899 45.4984 11.7849 45.4984H44.2135C44.5585 45.4984 44.8801 45.365 45.1235 45.1234C45.3668 44.8801 45.5001 44.5584 45.5018 44.2151C45.5018 44.0184 45.4568 43.8234 45.3701 43.6484L29.5791 11.4832C29.2858 10.8865 28.6658 10.4999 27.9959 10.4999Z" fill="white"/>
</g>
<defs>
<clipPath id="clip0_125_33">
<rect width="56" height="56" fill="white"/>
</clipPath>
</defs>
</svg>
