<svg width="56" height="56" viewBox="0 0 56 56" fill="none" xmlns="http://www.w3.org/2000/svg">
<g clip-path="url(#clip0_125_12)">
<path d="M0 2C0 0.89543 0.895431 0 2 0H54C55.1046 0 56 0.895431 56 2V54C56 55.1046 55.1046 56 54 56H2C0.89543 56 0 55.1046 0 54V2Z" fill="#A00A00"/>
<path d="M27.9992 38.0024C29.0349 38.0024 29.8745 37.163 29.8745 36.1272C29.8745 35.0915 29.0349 34.252 27.9992 34.252C26.9636 34.252 26.124 35.0915 26.124 36.1272C26.124 37.163 26.9636 38.0024 27.9992 38.0024Z" fill="white"/>
<path d="M27.9992 31.7507C27.3091 31.7507 26.749 31.1907 26.749 30.5006V17.9992C26.749 17.3091 27.3091 16.749 27.9992 16.749C28.6892 16.749 29.2493 17.3091 29.2493 17.9992V30.5006C29.2493 31.1907 28.6876 31.7507 27.9992 31.7507Z" fill="white"/>
<path d="M27.9998 48.0013C26.8597 48.0013 25.7879 47.5579 24.9828 46.7544L9.24764 31.021C7.58412 29.3574 7.58412 26.6488 9.24764 24.9853L24.9828 9.25181C25.7862 8.44672 26.8563 8.00167 27.9948 8C29.1366 8 30.2067 8.44172 31.0118 9.24514C31.0235 9.25681 46.7536 24.9853 46.7536 24.9853C48.4155 26.6505 48.4155 29.3574 46.7536 31.021L31.0185 46.7544C30.2117 47.5579 29.1399 48.0013 27.9998 48.0013ZM26.7496 44.9859C27.083 45.3176 27.5264 45.501 27.9998 45.501C28.4732 45.501 28.9166 45.3176 29.2499 44.9842L44.9851 29.2508C45.6735 28.5607 45.6735 27.4389 44.9851 26.7488L29.2483 11.0187C29.2316 11.0037 29.2083 10.977 29.1933 10.9603C28.9066 10.6786 28.4648 10.5003 28.0048 10.5003C27.5247 10.5003 27.083 10.6853 26.7496 11.0187L11.0128 26.7538C10.3244 27.4439 10.3244 28.5657 11.0128 29.2541L26.7496 44.9859Z" fill="white"/>
</g>
<defs>
<clipPath id="clip0_125_12">
<rect width="56" height="56" fill="white"/>
</clipPath>
</defs>
</svg>
