<svg width="56" height="56" viewBox="0 0 56 56" fill="none" xmlns="http://www.w3.org/2000/svg">
<g clip-path="url(#clip0_125_18)">
<path d="M0 2C0 0.89543 0.895431 0 2 0H54C55.1046 0 56 0.895431 56 2V54C56 55.1046 55.1046 56 54 56H2C0.89543 56 0 55.1046 0 54V2Z" fill="#480082"/>
<path d="M28 37.9971C29.0355 37.9971 29.875 37.1576 29.875 36.1221C29.875 35.0866 29.0355 34.2471 28 34.2471C26.9645 34.2471 26.125 35.0866 26.125 36.1221C26.125 37.1576 26.9645 37.9971 28 37.9971Z" fill="white"/>
<path d="M28 31.7471C27.31 31.7471 26.75 31.1871 26.75 30.4971V17.9971C26.75 17.3071 27.31 16.7471 28 16.7471C28.69 16.7471 29.25 17.3071 29.25 17.9971V30.4971C29.25 31.1871 28.6883 31.7471 28 31.7471Z" fill="white"/>
<path fill-rule="evenodd" clip-rule="evenodd" d="M28.0079 48C28.0102 48 28.0125 48 28.0148 48C28.5897 47.9994 29.1644 47.8505 29.6795 47.5532L44.1182 39.2207C45.0676 38.6728 45.6815 37.6977 45.7741 36.6179V19.382C45.6815 18.3022 45.0676 17.3272 44.1182 16.7793L29.6795 8.44678C29.1634 8.14893 28.5874 8 28.0113 8C27.4353 8 26.8593 8.14893 26.3432 8.44678L11.9045 16.7793C10.8722 17.3751 10.2363 18.476 10.2363 19.6674V36.3324C10.2363 37.5239 10.8722 38.6249 11.9045 39.2207L26.3432 47.5532C26.8583 47.8505 27.433 47.9994 28.0079 48ZM13.1541 18.9446C12.8952 19.094 12.7363 19.3697 12.7363 19.6674V36.3324C12.7363 36.6303 12.8953 36.906 13.1541 37.0554L27.5928 45.3879C27.8517 45.5373 28.1709 45.5374 28.4299 45.3879L42.8686 37.0554C43.1273 36.9061 43.2863 36.6305 43.2863 36.3324V19.6674C43.2863 19.3695 43.1274 19.094 42.8687 18.9447L28.4299 10.6121C28.1709 10.4626 27.8517 10.4626 27.5928 10.6121L13.1541 18.9446Z" fill="white"/>
</g>
<defs>
<clipPath id="clip0_125_18">
<rect width="56" height="56" fill="white"/>
</clipPath>
</defs>
</svg>
