<svg width="56" height="56" viewBox="0 0 56 56" fill="none" xmlns="http://www.w3.org/2000/svg">
<g clip-path="url(#clip0_125_28)">
<path d="M0 2C0 0.89543 0.895431 0 2 0H54C55.1046 0 56 0.895431 56 2V54C56 55.1046 55.1046 56 54 56H2C0.89543 56 0 55.1046 0 54V2Z" fill="#006161"/>
<path d="M28 38C29.0355 38 29.875 37.1605 29.875 36.125C29.875 35.0895 29.0355 34.25 28 34.25C26.9645 34.25 26.125 35.0895 26.125 36.125C26.125 37.1605 26.9645 38 28 38Z" fill="white"/>
<path d="M28 31.75C27.31 31.75 26.75 31.19 26.75 30.5V16.75C26.75 16.06 27.31 15.5 28 15.5C28.69 15.5 29.25 16.06 29.25 16.75V30.5C29.25 31.19 28.69 31.75 28 31.75Z" fill="white"/>
<path d="M28 48C16.9717 48 8 39.0283 8 28C8 16.9717 16.9717 8 28 8C39.0283 8 48 16.9717 48 28C48 39.0283 39.0283 48 28 48ZM28 10.5C18.35 10.5 10.5 18.35 10.5 28C10.5 37.65 18.35 45.5 28 45.5C37.65 45.5 45.5 37.65 45.5 28C45.5 18.35 37.65 10.5 28 10.5Z" fill="white"/>
</g>
<defs>
<clipPath id="clip0_125_28">
<rect width="56" height="56" fill="white"/>
</clipPath>
</defs>
</svg>
