<svg width="192" height="192" viewBox="0 0 192 192" fill="none" xmlns="http://www.w3.org/2000/svg">
<path d="M96.5001 29.875C93.4814 29.875 91.0312 27.425 91.0312 24.4063V13.4688C91.0312 10.45 93.4814 8 96.5001 8C99.5189 8 101.969 10.45 101.969 13.4688V24.4063C101.969 27.425 99.5189 29.875 96.5001 29.875Z" fill="black"/>
<path d="M146.769 50.7003C145.31 50.7003 143.932 50.1316 142.904 49.0961C141.869 48.0607 141.3 46.6899 141.3 45.2316C141.3 43.7732 141.869 42.3951 142.904 41.367L150.64 33.6305C151.676 32.5951 153.047 32.0264 154.505 32.0264C155.963 32.0264 157.341 32.5951 158.37 33.6305C159.405 34.6659 159.974 36.0368 159.974 37.4951C159.974 38.9534 159.405 40.3316 158.37 41.3597L150.633 49.0961C149.605 50.1316 148.227 50.7003 146.769 50.7003Z" fill="black"/>
<path fill-rule="evenodd" clip-rule="evenodd" d="M91 149.913C63.4211 147.146 41.8125 123.795 41.8125 95.5C41.8125 65.3489 66.349 40.8125 96.5 40.8125C121.633 40.8125 142.865 57.8615 149.236 81H137.78C131.783 63.9822 115.541 51.75 96.5 51.75C72.3792 51.75 52.75 71.3791 52.75 95.5C52.75 117.758 69.465 136.192 91 138.906V149.913Z" fill="black"/>
<path d="M38.4951 158.974C37.0368 158.974 35.6587 158.405 34.6305 157.37C33.5951 156.334 33.0264 154.964 33.0264 153.505C33.0264 152.047 33.5951 150.669 34.6305 149.641L42.367 141.904C43.3951 140.869 44.7733 140.3 46.2316 140.3C47.6899 140.3 49.068 140.869 50.0962 141.904C52.2253 144.033 52.2253 147.504 50.0962 149.641L42.3597 157.377C41.3316 158.405 39.9608 158.974 38.4951 158.974Z" fill="black"/>
<path d="M14.4688 100.969C11.45 100.969 9 98.5187 9 95.5C9 92.4812 11.45 90.0312 14.4688 90.0312H25.4063C28.425 90.0312 30.875 92.4812 30.875 95.5C30.875 98.5187 28.425 100.969 25.4063 100.969H14.4688Z" fill="black"/>
<path d="M46.2316 50.7003C44.7732 50.7003 43.3951 50.1316 42.367 49.0961L34.6305 41.3597C33.5951 40.3316 33.0264 38.9534 33.0264 37.4951C33.0264 36.0368 33.5951 34.6587 34.6305 33.6305C35.6587 32.5951 37.0368 32.0264 38.4951 32.0264C39.9535 32.0264 41.3316 32.5951 42.3597 33.6305L50.0962 41.367C51.1316 42.3951 51.7003 43.7732 51.7003 45.2316C51.7003 46.6899 51.1316 48.068 50.0962 49.0961C49.068 50.1316 47.6899 50.7003 46.2316 50.7003Z" fill="black"/>
<path d="M110.508 183C107.876 182.996 105.32 182.239 103.116 180.803C96.8305 176.718 95.0434 168.282 99.1251 161.997L123.108 125.101V101.438H120.389C118.889 101.438 117.671 100.22 117.671 98.7188C117.671 97.218 118.892 96 120.389 96H158.452C159.953 96 161.171 97.218 161.171 98.7188C161.171 100.22 159.953 101.438 158.452 101.438H155.733V125.101L179.716 162C181.152 164.212 181.913 166.771 181.913 169.406C181.913 173.035 180.499 176.45 177.933 179.02C175.362 181.586 171.951 183 168.319 183H110.508ZM103.685 164.962C101.235 168.732 102.308 173.796 106.078 176.247C107.401 177.106 108.934 177.562 110.511 177.566H168.319C170.498 177.566 172.546 176.718 174.087 175.177C175.627 173.637 176.475 171.588 176.475 169.41C176.475 167.829 176.019 166.292 175.156 164.966L162.142 144.941H116.699L103.685 164.962ZM158.608 139.5L150.734 127.389C150.448 126.947 150.296 126.435 150.296 125.906V123.188H142.139C140.639 123.188 139.421 121.97 139.421 120.469C139.421 118.968 140.642 117.75 142.139 117.75H150.296V112.312H142.139C140.639 112.312 139.421 111.095 139.421 109.594C139.421 108.093 140.642 106.875 142.139 106.875H150.296V101.438H128.546V125.906C128.546 126.435 128.393 126.947 128.107 127.389L120.234 139.5H158.608Z" fill="black"/>
<path d="M153.015 166.688C151.514 166.688 150.296 165.47 150.296 163.969V161.25H147.577C146.076 161.25 144.858 160.032 144.858 158.531C144.858 157.03 146.076 155.812 147.577 155.812H150.296V153.094C150.296 151.593 151.514 150.375 153.015 150.375C154.515 150.375 155.733 151.593 155.733 153.094V155.812H158.452C159.953 155.812 161.171 157.03 161.171 158.531C161.171 160.032 159.953 161.25 158.452 161.25H155.733V163.969C155.733 165.47 154.515 166.688 153.015 166.688Z" fill="black"/>
<path d="M120.386 170.766C120.226 170.766 120.063 170.751 119.904 170.722C118.051 170.497 116.569 169.018 116.351 167.162C116.322 167.007 116.308 166.847 116.308 166.688C116.308 166.528 116.322 166.368 116.347 166.213C116.565 164.353 118.051 162.87 119.911 162.649C120.063 162.624 120.223 162.609 120.382 162.609C120.447 162.609 120.574 162.62 120.639 162.627C120.712 162.631 120.781 162.638 120.846 162.649C122.709 162.863 124.196 164.349 124.417 166.213C124.446 166.368 124.46 166.528 124.46 166.688C124.46 166.847 124.446 167.007 124.417 167.162C124.199 169.018 122.72 170.501 120.864 170.722C120.712 170.751 120.552 170.766 120.386 170.766Z" fill="black"/>
<path d="M131.261 159.891C131.101 159.891 130.938 159.876 130.779 159.847C128.926 159.622 127.444 158.143 127.226 156.287C127.197 156.132 127.183 155.972 127.183 155.812C127.183 155.653 127.197 155.493 127.222 155.338C127.44 153.478 128.926 151.995 130.786 151.774C130.938 151.749 131.098 151.734 131.257 151.734C131.417 151.734 131.576 151.749 131.728 151.774C133.787 152.013 135.335 153.739 135.335 155.812C135.335 155.979 135.317 156.15 135.288 156.316C135.056 158.154 133.581 159.626 131.739 159.847C131.587 159.876 131.427 159.891 131.261 159.891Z" fill="black"/>
</svg>
