<svg width="192" height="192" viewBox="0 0 192 192" fill="none" xmlns="http://www.w3.org/2000/svg">
<path d="M96.5 150.188C66.349 150.188 41.8125 125.651 41.8125 95.5001C41.8125 65.349 66.349 40.8126 96.5 40.8126C126.651 40.8126 151.188 65.349 151.188 95.5001C151.188 125.651 126.651 150.188 96.5 150.188ZM96.5 51.7501C72.3792 51.7501 52.75 71.3792 52.75 95.5001C52.75 119.621 72.3792 139.25 96.5 139.25C120.621 139.25 140.25 119.621 140.25 95.5001C140.25 71.3792 120.621 51.7501 96.5 51.7501Z" fill="black"/>
<path d="M96.5 29.875C93.4813 29.875 91.0312 27.425 91.0312 24.4063V13.4688C91.0312 10.45 93.4813 8 96.5 8C99.5188 8 101.969 10.45 101.969 13.4688V24.4063C101.969 27.425 99.5188 29.875 96.5 29.875Z" fill="black"/>
<path d="M146.769 50.7C145.31 50.7 143.932 50.1313 142.904 49.0958C141.869 48.0604 141.3 46.6896 141.3 45.2313C141.3 43.7729 141.869 42.3948 142.904 41.3667L150.64 33.6302C151.676 32.5948 153.047 32.0261 154.505 32.0261C155.963 32.0261 157.341 32.5948 158.37 33.6302C159.405 34.6656 159.974 36.0365 159.974 37.4948C159.974 38.9531 159.405 40.3313 158.37 41.3594L150.633 49.0958C149.605 50.1313 148.227 50.7 146.769 50.7Z" fill="black"/>
<path d="M167.594 100.969C164.575 100.969 162.125 98.5188 162.125 95.5001C162.125 92.4813 164.575 90.0313 167.594 90.0313H178.531C181.55 90.0313 184 92.4813 184 95.5001C184 98.5188 181.55 100.969 178.531 100.969H167.594Z" fill="black"/>
<path d="M154.505 158.974C153.047 158.974 151.669 158.405 150.64 157.37L142.904 149.633C140.775 147.504 140.775 144.033 142.904 141.897C143.939 140.862 145.31 140.293 146.769 140.293C148.227 140.293 149.605 140.862 150.633 141.897L158.37 149.633C160.499 151.763 160.499 155.233 158.37 157.37C157.342 158.405 155.963 158.974 154.505 158.974Z" fill="black"/>
<path d="M96.5 183C93.4813 183 91.0312 180.55 91.0312 177.531V166.594C91.0312 163.575 93.4813 161.125 96.5 161.125C99.5188 161.125 101.969 163.575 101.969 166.594V177.531C101.969 180.55 99.5188 183 96.5 183Z" fill="black"/>
<path d="M38.4946 158.974C37.0363 158.974 35.6582 158.405 34.63 157.37C33.5946 156.334 33.0259 154.964 33.0259 153.505C33.0259 152.047 33.5946 150.669 34.63 149.641L42.3665 141.904C43.3946 140.869 44.7728 140.3 46.2311 140.3C47.6894 140.3 49.0675 140.869 50.0957 141.904C52.2248 144.033 52.2248 147.504 50.0957 149.641L42.3592 157.377C41.3311 158.405 39.9603 158.974 38.4946 158.974Z" fill="black"/>
<path d="M14.4688 100.969C11.45 100.969 9 98.5188 9 95.5001C9 92.4813 11.45 90.0313 14.4688 90.0313H25.4063C28.425 90.0313 30.875 92.4813 30.875 95.5001C30.875 98.5188 28.425 100.969 25.4063 100.969H14.4688Z" fill="black"/>
<path d="M46.2311 50.7C44.7727 50.7 43.3946 50.1313 42.3665 49.0958L34.63 41.3594C33.5946 40.3313 33.0259 38.9531 33.0259 37.4948C33.0259 36.0365 33.5946 34.6584 34.63 33.6302C35.6582 32.5948 37.0363 32.0261 38.4946 32.0261C39.953 32.0261 41.3311 32.5948 42.3592 33.6302L50.0957 41.3667C51.1311 42.3948 51.6998 43.7729 51.6998 45.2313C51.6998 46.6896 51.1311 48.0677 50.0957 49.0958C49.0675 50.1313 47.6894 50.7 46.2311 50.7Z" fill="black"/>
</svg>
